<?xml version="1.0" encoding="utf-8"?>
<svg id="master-artboard" viewBox="0 0 692.970703125 975.3331298828125" version="1.1" xmlns="http://www.w3.org/2000/svg" x="0px" y="0px" style="enable-background:new 0 0 1400 980;" width="692.970703125px" height="975.3331298828125px"><defs><style id="ee-google-fonts">@import url(https://fonts.googleapis.com/css?family=Rubik:300,300italic,400,400italic,500,500italic,700,700italic,900,900italic);</style></defs><rect id="ee-background" x="0" y="0" width="692.970703125" height="975.3331298828125" style="fill: white; fill-opacity: 0; pointer-events: none;"/>








































<g transform="matrix(1, 0, 0, 1, -331.3470764160156, 2.333430290222168)"><g transform="matrix(6.510762691497803, 0, 0, 6.510762691497803, 336.6809387207031, -8.264698028564453)"><g transform="matrix(1.3333333,0,0,-1.3333333,0,150.52)" id="g10"><g transform="scale(0.1)" id="g12"><path id="path66" style="fill: rgb(255, 255, 255); fill-opacity: 1; fill-rule: nonzero; stroke: none;" d="m 521.777,1097.62 c 0,-19.31 0,-820.682 0,-839.999 -18.855,0 -481.1325,0 -499.9997,0 0,19.317 0,820.689 0,839.999 18.8672,0 481.1447,0 499.9997,0 z m -519.99966,20 V 237.621 H 541.777 V 1117.62 H 1.77734"/><path id="path64" style="fill:#191d53;fill-opacity:1;fill-rule:nonzero;stroke:none" d="m 509.309,4.07031 h 23.4336 v 166.246 H 509.309 Z"/><path id="path62" style="fill:#191d53;fill-opacity:1;fill-rule:nonzero;stroke:none" d="m 272.621,91.8789 h 7.649 c 14.543,0 25.605,2.9727 33.175,8.9221 7.575,5.937 11.364,14.621 11.364,26.058 0,17.305 -12.446,25.957 -37.336,25.957 H 272.621 Z M 249.184,4.07031 V 170.316 h 50.293 c 15.937,0 28.156,-3.515 36.652,-10.566 8.496,-7.031 12.742,-17.258 12.742,-30.664 0,-10.566 -2.918,-19.957 -8.75,-28.207 -5.828,-8.2384 -14.023,-14.5704 -24.57,-18.9806 L 370.746,4.07031 H 341.637 L 294.531,74.3789 h -21.91 V 4.07031 h -23.437"/><path id="path60" style="fill:#191d53;fill-opacity:1;fill-rule:nonzero;stroke:none" d="M 0,7.19141 V 30.6289 C 18.75,21.8789 34.2031,17.5 46.3555,17.5 c 9.2265,0 16.6718,2.4609 22.3359,7.3711 5.6641,4.9102 8.4961,11.3086 8.4961,19.1797 0,6.5195 -1.8555,12.0703 -5.5664,16.6406 -3.7109,4.5703 -10.5547,9.668 -20.5273,15.2774 L 39.625,82.5898 C 25.4531,90.6719 15.4648,98.2891 9.65234,105.422 c -5.80859,7.137 -8.71484,15.43 -8.71484,24.855 0,12.871 4.64453,23.438 13.9297,31.7 9.2891,8.261 21.125,12.402 35.5078,12.402 12.8086,0 26.3281,-2.09 40.5625,-6.25 v -21.563 c -17.5469,6.875 -30.6406,10.313 -39.2617,10.313 -8.1758,0 -14.9297,-2.18 -20.25,-6.524 -5.3281,-4.355 -7.9883,-9.824 -7.9883,-16.425 0,-5.551 1.9492,-10.469 5.8438,-14.75 3.8984,-4.27 11.0195,-9.36 21.3671,-15.27 L 62.5703,97.1719 C 76.9648,89.0313 87.0078,81.3086 92.707,74.0703 98.3984,66.8008 101.25,58.0898 101.25,47.9102 101.25,33.4805 95.9258,21.8789 85.293,13.1289 74.6523,4.37891 60.5313,0 42.9297,0 31.6914,0 17.3789,2.41016 0,7.19141"/><path id="path58" style="fill: rgb(255, 255, 255); fill-opacity: 1; fill-rule: nonzero; stroke: none;" d="m 338.535,1020.11 c -6.23,-1.11 -9.355,-2.77 -9.355,-4.97 v -9.96 c 0,-2.78 3.125,-4.71 9.355,-5.825 6.231,-1.093 16.238,-1.66 30.02,-1.66 h 56.113 c 13.777,0 23.945,0.567 30.508,1.66 6.894,1.115 10.344,3.045 10.344,5.825 v 9.96 c 0,2.2 -3.45,3.86 -10.344,4.97 -6.231,1.1 -16.406,1.67 -30.508,1.67 h -56.113 c -14.102,0 -24.121,-0.57 -30.02,-1.67 z M 67.3438,826.328 c 13.125,10.235 34.1212,15.352 62.9882,15.352 h 0.996 v 18.261 h -0.996 c -28.867,0 -49.8632,3.457 -62.9882,10.372 -6.8516,3.699 -11.8086,8.589 -14.9922,14.589 v -80.535 c 3.1836,9.125 8.1406,16.481 14.9922,21.961 z m 26.5703,86.309 c -6.2383,-0.821 -9.3438,-1.934 -9.3438,-3.321 v -8.711 c 0,-1.933 3.1055,-3.183 9.3438,-3.73 6.2419,-0.84 16.2419,-1.25 30.0309,-1.25 h 55.606 c 13.457,0 23.469,0.41 30.027,1.25 6.242,0.547 9.348,1.797 9.348,3.73 v 8.711 c 0,1.387 -3.106,2.5 -9.348,3.321 -5.906,0.554 -15.906,0.84 -30.027,0.84 h -55.606 c -14.441,0 -24.4528,-0.286 -30.0309,-0.84 z m 244.6209,0 c -6.23,-0.821 -9.355,-1.934 -9.355,-3.321 v -8.711 c 0,-1.933 3.125,-3.183 9.355,-3.73 6.231,-0.84 16.238,-1.25 30.02,-1.25 h 56.113 c 13.777,0 23.945,0.41 30.508,1.25 6.894,0.547 10.344,1.797 10.344,3.73 v 8.711 c 0,1.387 -3.45,2.5 -10.344,3.321 -5.899,0.554 -16.074,0.84 -30.508,0.84 h -56.113 c -14.434,0 -24.446,-0.286 -30.02,-0.84 z M 93.9141,1020.11 c -6.2383,-1.11 -9.3438,-2.77 -9.3438,-4.97 v -9.96 c 0,-2.78 3.1055,-4.71 9.3438,-5.825 6.2419,-1.093 16.2419,-1.66 30.0309,-1.66 h 55.606 c 13.457,0 23.469,0.567 30.027,1.66 6.242,1.115 9.348,3.045 9.348,5.825 v 9.96 c 0,2.2 -3.106,3.86 -9.348,4.97 -6.238,1.1 -16.238,1.67 -30.027,1.67 h -55.606 c -14.121,0 -24.1208,-0.57 -30.0309,-1.67 z M 416.797,859.941 h -0.996 V 841.68 h 0.996 c 29.531,0 50.859,-5.117 63.984,-15.352 3.496,-2.73 6.516,-5.894 9.102,-9.449 v 59.652 c -2.586,-2.336 -5.606,-4.422 -9.102,-6.218 -13.457,-6.915 -34.785,-10.372 -63.984,-10.372 z M 52.3516,335.055 v -39.524 h 44.4961 c -11.3125,2.981 -20.4922,7.434 -27.543,13.379 -7.8789,6.485 -13.4727,15.254 -16.9531,26.145 z M 416.797,964.09 h -0.996 V 947.5 h 0.996 c 29.531,0 50.859,-3.32 63.984,-9.961 3.496,-1.797 6.516,-3.883 9.102,-6.223 v 49.395 c -2.586,-2.356 -5.606,-4.445 -9.102,-6.25 -13.457,-6.914 -34.785,-10.371 -63.984,-10.371 z M 67.3438,1042.1 c 13.125,6.92 34.1212,10.38 62.9882,10.38 h 0.996 v 0.82 c 0,6.62 0.652,12.07 1.82,16.6 H 52.3516 v -42.38 c 3.1836,5.99 8.1406,10.88 14.9922,14.58 z m 0.9765,-482.991 c -7.3633,5.907 -12.6367,13.825 -15.9687,23.621 v -83.574 c 3.0312,11.668 7.6679,17.645 13.9961,17.645 12.1484,0 18.2226,-21.446 18.2226,-64.317 v -86.738 c 0,-15.215 2.2852,-26.406 6.8867,-33.613 4.9219,-7.461 12.469,-11.192 22.645,-11.192 h 21.152 v 221.575 h -0.977 c -30.195,0 -52.1676,5.531 -65.9567,16.593 z m 345.5197,6.633 h -0.988 V 548.32 c 0,-9.394 1.972,-16.168 5.91,-20.328 3.933,-4.14 10.664,-6.211 20.183,-6.211 h 18.692 c 14.316,0 25.019,-5.586 32.246,-16.511 v 81.835 c -2.715,-3.058 -5.891,-5.773 -9.602,-8.082 -14.109,-8.847 -36.258,-13.281 -66.441,-13.281 z m 51.68,-119.078 c 0,15.215 -1.145,26.426 -3.45,33.613 -2.297,6.914 -5.742,10.371 -10.332,10.371 H 440.906 V 364.926 c 0,-25.723 -5.738,-44.395 -17.222,-56.016 -5.739,-5.945 -13.196,-10.398 -22.375,-13.379 h 75.078 c -7.207,7.227 -10.867,27.188 -10.867,60.254 z m -60.54,-33.203 h -75.8 v -47.715 c 0,-15.215 1.64,-26.406 4.922,-33.613 3.281,-7.461 8.867,-11.192 16.738,-11.192 h 31.504 c 7.539,0 13.281,3.731 17.226,11.192 3.606,7.207 5.41,18.398 5.41,33.613 z M 67.3438,937.539 c 13.125,6.641 34.1212,9.961 62.9882,9.961 h 0.996 v 16.59 h -0.996 c -28.867,0 -49.8632,3.457 -62.9882,10.371 -6.8516,3.707 -11.8086,8.633 -14.9922,14.707 v -66.016 c 3.1836,6.012 8.1406,10.832 14.9922,14.387 z M 413.48,1069.9 c 1.532,-4.33 2.321,-9.84 2.321,-16.6 v -0.82 h 0.996 c 29.199,0 50.527,-3.46 63.984,-10.38 3.496,-1.8 6.516,-3.88 9.102,-6.22 v 34.02 z M 125.906,572.383 h 58.567 c 14.441,0 24.941,2.226 31.504,6.64 6.562,4.161 9.843,10.938 9.843,20.332 v 18.262 H 84.5703 v -18.262 c 0,-9.394 3.1055,-16.171 9.3438,-20.332 6.5659,-4.414 17.2309,-6.64 31.9919,-6.64 z m 331.731,29.883 c 5.254,1.933 7.883,5.117 7.883,9.539 v 18.254 c 0,3.886 -2.629,6.785 -7.883,8.718 -4.922,1.946 -12.793,2.903 -23.614,2.903 h -21.171 v -42.325 h 21.171 c 10.489,0 18.372,0.977 23.614,2.911 z m 7.883,156.425 v 20.34 c 0,10.227 -2.297,17.707 -6.887,22.403 -4.922,4.425 -12.481,6.64 -22.649,6.64 h -20.183 v -33.191 c 0,-42.324 -5.899,-63.496 -17.715,-63.496 -11.816,0 -17.715,21.172 -17.715,63.496 v 33.191 h -21.66 c -10.496,0 -18.047,-2.215 -22.637,-6.64 -4.59,-4.696 -6.894,-12.176 -6.894,-22.403 v -20.34 c 0,-31.808 -5.899,-47.714 -17.715,-47.714 -11.485,0 -17.227,15.906 -17.227,47.714 v 17.852 c 0,22.949 6.719,39.551 20.176,49.785 13.125,10.235 34.785,15.352 64.973,15.352 h 0.984 v 18.261 h -0.984 c -29.856,0 -51.516,3.457 -64.973,10.372 -13.457,6.914 -20.176,17.851 -20.176,32.781 v 1.66 c 0,15.215 6.719,26.144 20.176,32.785 13.125,6.641 34.785,9.961 64.973,9.961 h 0.984 v 16.59 h -0.984 c -29.856,0 -51.516,3.457 -64.973,10.371 -13.457,6.926 -20.176,17.98 -20.176,33.199 v 1.66 c 0,14.94 6.719,25.86 20.176,32.78 13.457,6.92 35.117,10.38 64.973,10.38 h 0.984 v 0.82 c 0,6.76 0.789,12.27 2.32,16.6 H 164.938 c 1.167,-4.53 1.82,-9.98 1.82,-16.6 v -0.82 h 0.984 c 30.52,0 52.824,-3.46 66.946,-10.38 14.101,-6.92 21.152,-17.84 21.152,-32.78 v -1.66 c 0,-15.219 -7.051,-26.273 -21.152,-33.199 -14.122,-6.914 -36.426,-10.371 -66.946,-10.371 h -0.984 V 947.5 h 0.984 c 30.852,0 53.156,-3.32 66.946,-9.961 14.101,-6.641 21.152,-17.57 21.152,-32.785 v -1.66 c 0,-14.93 -7.051,-25.867 -21.152,-32.781 -14.122,-6.915 -36.426,-10.372 -66.946,-10.372 h -0.984 V 841.68 h 0.984 c 30.852,0 53.156,-5.117 66.946,-15.352 14.101,-10.234 21.152,-26.836 21.152,-49.785 v -17.852 c 0,-31.808 -5.899,-47.714 -17.715,-47.714 -12.141,0 -18.203,15.906 -18.203,47.714 v 20.34 c 0,10.227 -2.461,17.707 -7.383,22.403 -4.922,4.425 -12.969,6.64 -24.121,6.64 h -21.66 v -33.191 c 0,-42.324 -5.899,-63.496 -17.715,-63.496 -11.816,0 -17.715,21.172 -17.715,63.496 v 33.191 h -20.183 c -9.192,0 -15.9106,-2.215 -20.188,-6.64 -4.2578,-4.696 -6.3867,-12.176 -6.3867,-22.403 v -20.34 c 0,-31.808 -6.0742,-47.714 -18.2226,-47.714 -6.3282,0 -10.9649,4.433 -13.9961,13.089 v -52.625 c 3.0312,5.571 7.6679,8.422 13.9961,8.422 12.1484,0 18.2226,-10.234 18.2226,-30.715 V 648.32 H 226.809 v 16.192 c 0,9.394 6.238,14.101 18.699,14.101 12.148,0 18.215,-4.707 18.215,-14.101 v -54.356 c 0,-23.515 -7.063,-40.664 -21.164,-51.465 -14.114,-10.781 -36.426,-16.175 -66.934,-16.175 h -4.922 V 394.789 h 22.637 c 11.484,0 20.019,3.047 25.586,9.141 5.254,6.074 7.883,15.351 7.883,27.793 v 25.742 c 0,39.551 6.238,59.336 18.699,59.336 12.148,0 18.215,-19.785 18.215,-59.336 v -18.262 c 0,-26.015 -7.063,-44.824 -21.164,-56.445 -14.114,-11.895 -36.426,-17.832 -66.934,-17.832 h -4.922 v -43.985 h 49.219 c 30.84,0 46.262,-4.98 46.262,-14.941 0,-4.543 -3.375,-7.996 -9.793,-10.469 h 76.953 c -9.344,2.981 -16.965,7.434 -22.864,13.379 -11.488,11.621 -17.226,30.293 -17.226,56.016 v 115.762 c 0,43.164 5.906,64.738 17.723,64.738 12.128,0 18.203,-21.574 18.203,-64.738 v -33.184 h 75.8 v 43.144 h -0.988 c -9.187,0 -15.906,5.957 -20.183,17.852 -4.258,11.895 -6.387,30.699 -6.387,56.422 v 0.82 h -17.727 c -50.855,0 -76.289,5.684 -76.289,17.02 0,11.066 25.434,16.593 76.289,16.593 h 17.727 v 42.325 h -49.219 c -30.848,0 -46.269,5.672 -46.269,17.019 0,11.614 15.421,17.422 46.269,17.422 h 84.649 c 30.839,0 53.32,-4.422 67.429,-13.269 3.711,-2.317 6.887,-5.032 9.602,-8.086 v 58.504 c -1.973,-1.426 -4.141,-2.293 -6.641,-2.293 -11.816,0 -17.722,15.906 -17.722,47.714"/><path id="path56" style="fill: rgb(0, 0, 0); fill-opacity: 1; fill-rule: nonzero; stroke: none;" d="m 626.289,0.859375 h 10 V 1128.9294 h -10 z"/><path id="path54" style="fill:#191d53;fill-opacity:1;fill-rule:nonzero;stroke:none" d="m 702.117,1100.49 h 85.207 v 10.5625 h -85.207 z"/><path id="path52" style="fill: rgb(0, 0, 0); fill-opacity: 1; fill-rule: nonzero; stroke: none;" d="m 757.688,1073.25 c -0.247,-11.52 1.792,-24.6 13.074,-24.6 6.965,0 10.078,4.56 10.078,9.84 0,7.68 -4.793,12.6 -9.719,14.28 -1.07,0.36 -2.273,0.48 -3.355,0.48 z m 15.718,10.32 c 5.039,0 9.953,0.24 13.918,0.84 v -9.48 L 780,1073.97 v -0.36 c 4.563,-3.12 8.645,-9.48 8.645,-17.76 0,-11.76 -8.286,-17.76 -16.68,-17.76 -14.043,0 -21.723,12.48 -21.606,34.92 h -1.199 c -4.797,0 -13.555,-1.32 -13.437,-13.2 0,-5.52 1.562,-11.16 4.316,-15.24 l -7.078,-2.4 c -3,4.8 -5.039,11.88 -5.039,19.2 0,17.88 12.117,22.2 23.758,22.2 h 21.726"/><path id="path50" style="fill: rgb(0, 0, 0); fill-opacity: 1; fill-rule: nonzero; stroke: none;" d="m 744.961,976.051 c -6.113,0 -10.918,-0.117 -15.715,-0.481 v 9.36 l 9.477,0.601 v 0.239 c -5.403,2.882 -10.801,9.601 -10.801,19.2 0,8.04 4.805,20.52 24.723,20.52 h 34.679 v -10.56 h -33.476 c -9.368,0 -17.285,-3.48 -17.285,-13.44 0,-6.838 4.921,-12.236 10.8,-14.158 1.321,-0.48 3.242,-0.723 4.922,-0.723 h 35.039 v -10.558 h -42.363"/><path id="path48" style="fill: rgb(0, 0, 0); fill-opacity: 1; fill-rule: nonzero; stroke: none;" d="m 780.723,934.176 c 0,10.078 -9.485,17.637 -22.676,17.637 -9.844,0 -22.207,-4.918 -22.207,-17.399 0,-12.363 11.523,-17.766 22.566,-17.766 12.715,0 22.317,7.204 22.317,17.403 z m 7.922,-0.363 c 0,-15.602 -11.528,-27.84 -29.883,-27.84 -19.438,0 -30.84,12.84 -30.84,28.797 0,16.683 12.117,27.964 29.766,27.964 21.597,0 30.957,-15 30.957,-28.804 v -0.117"/><path id="path46" style="fill: rgb(0, 0, 0); fill-opacity: 1; fill-rule: nonzero; stroke: none;" d="m 787.324,882.094 h -58.078 v 10.558 h 58.078 z m -68.761,5.039 c 0,-3.961 -3.125,-6.602 -6.833,-6.602 -3.722,0 -6.73,2.766 -6.73,6.84 0,4.082 3.008,6.719 6.73,6.719 3.708,0 6.833,-2.637 6.833,-6.84 v -0.117"/><path id="path44" style="fill: rgb(0, 0, 0); fill-opacity: 1; fill-rule: nonzero; stroke: none;" d="m 715.32,855.094 h 13.926 v 15.121 h 8.039 v -15.121 h 31.32 c 7.196,0 11.278,2.039 11.278,7.918 0,2.883 -0.235,4.562 -0.723,6.125 l 8.047,0.476 c 0.715,-2.039 1.438,-5.277 1.438,-9.359 0,-4.922 -1.68,-8.883 -4.434,-11.402 -3.242,-2.875 -8.41,-4.079 -15.246,-4.079 h -31.68 v -8.996 h -8.039 v 8.996 h -10.683 l -3.243,10.321"/><path id="path42" style="fill: rgb(0, 0, 0); fill-opacity: 1; fill-rule: nonzero; stroke: none;" d="m 757.688,815.613 c -0.247,-11.515 1.792,-24.597 13.074,-24.597 6.965,0 10.078,4.558 10.078,9.839 0,7.68 -4.793,12.602 -9.719,14.282 -1.07,0.355 -2.273,0.476 -3.355,0.476 z m 15.718,10.321 c 5.039,0 9.953,0.242 13.918,0.839 v -9.48 L 780,816.332 v -0.355 c 4.563,-3.122 8.645,-9.485 8.645,-17.766 0,-11.758 -8.286,-17.758 -16.68,-17.758 -14.043,0 -21.723,12.481 -21.606,34.922 h -1.199 c -4.797,0 -13.555,-1.324 -13.437,-13.203 0,-5.516 1.562,-11.156 4.316,-15.238 l -7.078,-2.399 c -3,4.801 -5.039,11.879 -5.039,19.199 0,17.883 12.117,22.2 23.758,22.2 h 21.726"/><path id="path40" style="fill: rgb(0, 0, 0); fill-opacity: 1; fill-rule: nonzero; stroke: none;" d="m 744.961,718.41 c -6.113,0 -10.918,-0.113 -15.715,-0.476 v 9.359 l 9.477,0.602 v 0.238 c -5.403,2.883 -10.801,9.601 -10.801,19.199 0,8.043 4.805,20.523 24.723,20.523 h 34.679 v -10.562 h -33.476 c -9.368,0 -17.285,-3.48 -17.285,-13.438 0,-6.839 4.921,-12.238 10.8,-14.16 1.321,-0.48 3.242,-0.722 4.922,-0.722 h 35.039 V 718.41 h -42.363"/><path id="path38" style="fill: rgb(0, 0, 0); fill-opacity: 1; fill-rule: nonzero; stroke: none;" d="m 747.363,678.816 c -6.836,0 -12.715,-0.121 -18.117,-0.484 v 9.246 l 11.399,0.477 v 0.363 c -7.801,2.637 -12.723,9.117 -12.723,16.195 0,1.086 0.125,1.922 0.359,2.879 h 9.844 c -0.117,-1.199 -0.242,-2.277 -0.242,-3.719 0,-7.437 5.64,-12.718 13.445,-14.16 1.555,-0.238 3.235,-0.355 5.039,-0.355 h 30.957 v -10.563 l -39.961,0.121"/><path id="path36" style="fill: rgb(0, 0, 0); fill-opacity: 1; fill-rule: nonzero; stroke: none;" d="m 752.52,655.414 c -6.59,0.121 -17.161,-2.758 -17.161,-14.516 0,-10.8 9.844,-15.363 17.161,-16.203 z m 7.57,-30.84 c 14.273,0.246 20.152,9.242 20.152,19.805 0,7.559 -1.316,12.238 -2.879,16.078 l 7.442,1.922 c 1.679,-3.723 3.718,-10.203 3.718,-19.441 0,-17.762 -11.882,-28.563 -29.277,-28.563 -17.644,0 -31.441,10.445 -31.441,27.363 0,18.961 16.675,23.875 27.363,23.875 2.156,0 3.836,-0.117 5.035,-0.355 l -0.113,-40.684"/><path id="path34" style="fill: rgb(0, 0, 0); fill-opacity: 1; fill-rule: nonzero; stroke: none;" d="m 715.32,592.301 h 13.926 v 15.113 h 8.039 v -15.113 h 31.32 c 7.196,0 11.278,2.035 11.278,7.918 0,2.875 -0.235,4.554 -0.723,6.117 l 8.047,0.48 c 0.715,-2.043 1.438,-5.281 1.438,-9.363 0,-4.914 -1.68,-8.875 -4.434,-11.394 -3.242,-2.879 -8.41,-4.082 -15.246,-4.082 h -31.68 v -9 h -8.039 v 9 h -10.683 l -3.243,10.324"/><path id="path32" style="fill: rgb(0, 0, 0); fill-opacity: 1; fill-rule: nonzero; stroke: none;" d="m 744.961,513.461 c -6.113,0 -10.918,-0.129 -15.715,-0.488 v 9.367 l 9.477,0.594 v 0.246 c -5.403,2.879 -10.801,9.597 -10.801,19.199 0,8.039 4.805,20.519 24.723,20.519 h 34.679 V 552.34 h -33.476 c -9.368,0 -17.285,-3.485 -17.285,-13.445 0,-6.84 4.921,-12.239 10.8,-14.153 1.321,-0.48 3.242,-0.722 4.922,-0.722 h 35.039 v -10.559 h -42.363"/><path id="path30" style="fill: rgb(0, 0, 0); fill-opacity: 1; fill-rule: nonzero; stroke: none;" d="m 706.445,485.016 h 80.8789 v 10.5625 H 706.445 Z"/><path id="path28" style="fill: rgb(0, 0, 0); fill-opacity: 1; fill-rule: nonzero; stroke: none;" d="m 752.883,431.266 c -1.438,0 -3.117,-0.129 -4.563,-0.489 -6.59,-1.554 -12.121,-7.316 -12.121,-15.238 0,-10.918 9.602,-17.398 22.324,-17.398 11.875,0 21.606,5.879 21.606,17.156 0,7.082 -4.809,13.566 -12.609,15.48 -1.434,0.36 -2.872,0.489 -4.551,0.489 z m -50.766,10.554 h 70.207 c 5.156,0 11.035,0.118 15,0.481 v -9.485 l -10.078,-0.476 v -0.235 c 6.477,-3.242 11.399,-10.207 11.399,-19.691 0,-14.031 -11.875,-24.961 -29.524,-24.961 -19.433,-0.113 -31.199,12.004 -31.199,26.047 0,9.004 4.195,15 8.758,17.52 v 0.246 h -34.563 v 10.554"/><path id="path26" style="fill: rgb(0, 0, 0); fill-opacity: 1; fill-rule: nonzero; stroke: none;" d="m 757.688,364.418 c -0.247,-11.512 1.792,-24.598 13.074,-24.598 6.965,0 10.078,4.559 10.078,9.84 0,7.68 -4.793,12.602 -9.719,14.281 -1.07,0.36 -2.273,0.477 -3.355,0.477 z m 15.718,10.324 c 5.039,0 9.953,0.242 13.918,0.836 v -9.48 L 780,365.141 v -0.36 c 4.563,-3.117 8.645,-9.484 8.645,-17.765 0,-11.758 -8.286,-17.754 -16.68,-17.754 -14.043,0 -21.723,12.48 -21.606,34.922 h -1.199 c -4.797,0 -13.555,-1.329 -13.437,-13.204 0,-5.515 1.562,-11.16 4.316,-15.242 l -7.078,-2.394 c -3,4.797 -5.039,11.875 -5.039,19.199 0,17.883 12.117,22.199 23.758,22.199 h 21.726"/><path id="path24" style="fill: rgb(0, 0, 0); fill-opacity: 1; fill-rule: nonzero; stroke: none;" d="m 780.723,291.938 c 0,10.078 -9.485,17.644 -22.676,17.644 -9.844,0 -22.207,-4.922 -22.207,-17.398 0,-12.364 11.523,-17.766 22.566,-17.766 12.715,0 22.317,7.207 22.317,17.402 z m 7.922,-0.364 c 0,-15.594 -11.528,-27.832 -29.883,-27.832 -19.438,0 -30.84,12.832 -30.84,28.801 0,16.68 12.117,27.961 29.766,27.961 21.597,0 30.957,-15 30.957,-28.801 v -0.129"/><path id="path22" style="fill:#191d53;fill-opacity:1;fill-rule:nonzero;stroke:none" d="m 744.363,213.824 v 10.684 c 0,11.152 -6.121,18.23 -15.359,18.23 -10.441,0 -15,-7.558 -15,-18.593 0,-5.04 0.476,-8.528 0.957,-10.321 z m -36.718,-10.441 c -1.082,5.281 -1.805,12.961 -1.805,20.039 0,11.16 2.168,18.476 6.726,23.516 3.481,3.964 8.997,6.367 15.356,6.367 10.562,0 17.644,-6.848 20.523,-15.242 h 0.364 c 2.16,6.121 7.921,9.843 16.32,11.882 11.277,2.637 19.082,4.563 22.195,6.114 v -10.801 c -2.273,-1.317 -9.238,-3.113 -19.316,-5.274 -11.16,-2.402 -15.363,-6.843 -15.723,-16.32 v -9.84 h 35.039 v -10.441 h -79.679"/><path id="path20" style="fill:#191d53;fill-opacity:1;fill-rule:nonzero;stroke:none" d="m 755.891,131.859 v 0.246 c -2.043,1.434 -4.692,3.36 -6.606,5.04 l -20.039,17.156 v 12.609 l 23.879,-22.441 34.199,25.554 v -12.839 l -27.961,-19.922 6.125,-5.403 h 21.836 v -10.558 h -85.207 v 10.558 h 53.774"/><path id="path18" style="fill:#191d53;fill-opacity:1;fill-rule:nonzero;stroke:none" d="m 702.117,93.2305 h 85.207 v 10.5508 h -85.207 z"/><path id="path16" style="fill:#191d53;fill-opacity:1;fill-rule:nonzero;stroke:none" d="m 787.324,65.1406 h -58.078 v 10.5703 h 58.078 z m -68.761,5.0508 c 0,-3.9726 -3.125,-6.6016 -6.833,-6.6016 -3.722,0 -6.73,2.75 -6.73,6.8321 0,4.0898 3.008,6.7187 6.73,6.7187 3.708,0 6.833,-2.6289 6.833,-6.832 v -0.1172"/><path id="path14" style="fill:#191d53;fill-opacity:1;fill-rule:nonzero;stroke:none" d="m 774.602,5.14063 c 3.003,4.6875 5.281,11.41017 5.281,18.59767 0,10.6914 -5.52,16.9336 -13.797,16.9336 -7.441,0 -11.887,-4.3321 -15.957,-15.25 -4.809,-13.2031 -11.77,-21.35159 -23.051,-21.35159 -12.598,0 -21.949,10.44139 -21.949,26.16019 0,8.1484 1.914,14.2812 3.953,17.75 l 8.523,-2.8789 c -1.558,-2.5235 -3.843,-7.9219 -3.843,-15.2305 0,-11.0508 6.597,-15.25 12.129,-15.25 7.554,0 11.277,4.9297 15.593,16.0898 5.403,13.6797 11.875,20.5079 23.758,20.5079 12.485,0 23.403,-9.1172 23.403,-28.1993 0,-7.789 -2.407,-16.32028 -5.286,-20.62887 l -8.757,2.75"/></g></g><metadata id="metadata8"/></g></g></svg>